<?xml version="1.0" standalone="no"?>
<!DOCTYPE svg PUBLIC "-//W3C//DTD SVG 20010904//EN"
 "http://www.w3.org/TR/2001/REC-SVG-20010904/DTD/svg10.dtd">
<svg version="1.0" xmlns="http://www.w3.org/2000/svg"
 width="300.000000pt" height="180.000000pt" viewBox="0 0 300.000000 180.000000"
 preserveAspectRatio="xMidYMid meet">
<metadata>
Created by potrace 1.10, written by Peter Selinger 2001-2011
</metadata>
<g transform="translate(0.000000,180.000000) scale(0.100000,-0.100000)"
fill="#23c19e" stroke="none">
<path d="M1074 1781 c-3 -3 -12 -6 -20 -7 -9 -1 -23 -6 -32 -10 -9 -4 -20 -8
-24 -9 -5 -2 -10 -4 -13 -5 -3 -1 -8 -3 -12 -5 -23 -6 -43 -18 -43 -25 0 -5
12 -3 28 5 44 21 75 29 68 16 -4 -6 -2 -11 3 -11 6 0 11 6 11 14 0 8 22 20 58
29 50 13 53 15 19 14 -21 -1 -41 -4 -43 -6z"/>
<path d="M1365 1776 c106 -27 174 -75 221 -156 19 -31 38 -42 28 -15 -4 8 -10
15 -15 15 -5 0 -9 6 -9 13 0 31 -119 133 -167 142 -10 2 -18 4 -18 5 0 1 -20
3 -45 5 l-45 4 50 -13z"/>
<path d="M1193 1763 c15 -2 39 -2 55 0 15 2 2 4 -28 4 -30 0 -43 -2 -27 -4z"/>
<path d="M1088 1753 c6 -2 18 -2 25 0 6 3 1 5 -13 5 -14 0 -19 -2 -12 -5z"/>
<path d="M1378 1743 c7 -3 16 -2 19 1 4 3 -2 6 -13 5 -11 0 -14 -3 -6 -6z"/>
<path d="M890 1710 c0 -5 -5 -10 -11 -10 -6 0 -25 -11 -43 -25 -18 -14 -36
-25 -41 -25 -13 0 -145 -134 -145 -147 0 -7 -4 -13 -8 -13 -5 0 -14 -12 -21
-27 -11 -26 -10 -27 4 -8 72 93 163 183 209 205 24 12 86 52 86 56 0 2 -7 4
-15 4 -8 0 -15 -4 -15 -10z"/>
<path d="M1477 1694 c18 -13 44 -39 58 -57 15 -18 22 -23 16 -11 -11 22 -86
94 -99 94 -4 0 7 -12 25 -26z"/>
<path d="M945 1700 c-3 -6 1 -7 9 -4 18 7 21 14 7 14 -6 0 -13 -4 -16 -10z"/>
<path d="M812 1623 c-24 -24 -24 -25 -2 -8 42 33 44 35 37 35 -4 0 -19 -12
-35 -27z"/>
<path d="M1764 1591 c-3 -3 -10 -7 -15 -7 -5 -1 -11 -3 -14 -4 -3 -1 -8 -3
-13 -4 -10 -2 -78 -46 -71 -46 4 0 33 12 65 27 83 38 166 36 257 -5 37 -17 67
-27 67 -23 0 7 -75 45 -90 46 -3 1 -14 6 -25 12 -20 11 -150 14 -161 4z"/>
<path d="M1620 1560 c6 -11 12 -20 14 -20 2 0 2 9 -1 20 -3 11 -9 20 -15 20
-5 0 -4 -9 2 -20z"/>
<path d="M1788 1553 c7 -3 16 -2 19 1 4 3 -2 6 -13 5 -11 0 -14 -3 -6 -6z"/>
<path d="M1740 1540 c-8 -5 -10 -10 -5 -10 6 0 17 5 25 10 8 5 11 10 5 10 -5
0 -17 -5 -25 -10z"/>
<path d="M1700 1520 c-9 -6 -10 -10 -3 -10 6 0 15 5 18 10 8 12 4 12 -15 0z"/>
<path d="M2177 1498 c-7 -4 20 -8 60 -8 39 0 80 -3 90 -6 14 -6 16 -4 6 6 -13
14 -137 20 -156 8z"/>
<path d="M1893 1485 c-71 -20 -171 -66 -236 -109 l-55 -36 19 -37 c11 -21 19
-43 19 -49 0 -7 34 -29 75 -49 46 -22 93 -54 123 -85 50 -51 112 -154 112
-186 0 -11 3 -14 9 -8 12 11 19 144 8 144 -4 0 -10 -13 -13 -30 -7 -33 -24
-31 -24 3 0 29 -64 113 -117 153 -23 18 -63 40 -90 50 -26 9 -57 26 -69 36
-21 19 -25 51 -8 67 19 18 127 75 120 63 -10 -16 5 -15 29 1 41 27 150 52 230
52 67 0 89 -4 135 -28 52 -26 53 -27 19 -22 -20 3 -44 3 -53 -1 -13 -5 -7 -12
26 -34 50 -32 87 -70 117 -120 44 -73 17 -68 -88 17 -69 56 -158 98 -262 123
-97 23 -99 23 -99 10 0 -5 14 -10 30 -10 17 0 30 -5 30 -11 0 -5 4 -8 9 -4 20
12 169 -46 246 -97 44 -29 80 -57 80 -63 3 -65 19 -145 27 -134 6 9 7 6 3 -11
-7 -28 21 -175 37 -200 7 -11 8 -7 4 15 -5 27 -5 28 6 8 14 -28 -4 -53 -33
-46 -27 8 -34 22 -7 16 13 -2 -1 9 -30 26 -30 17 -76 47 -104 68 -27 21 -54
37 -59 35 -5 -1 -8 2 -7 6 4 10 -37 57 -83 97 l-34 30 29 -32 c15 -17 25 -36
22 -41 -7 -11 79 -93 150 -143 25 -19 44 -40 44 -51 0 -31 -19 -58 -42 -58
-28 0 -47 28 -48 68 0 17 -5 32 -11 32 -20 0 8 -118 29 -121 4 -1 26 -3 50 -4
37 -3 41 -1 26 9 -12 10 -14 15 -5 20 6 4 18 3 25 -3 10 -8 17 -7 27 6 8 9 9
14 2 10 -13 -8 -43 1 -43 13 0 15 42 18 73 6 18 -8 44 -16 58 -19 l26 -7 -24
51 c-13 27 -29 76 -34 107 -6 31 -17 91 -25 132 -10 55 -11 77 -2 85 8 7 9 6
3 -3 -4 -9 3 -24 18 -40 14 -15 33 -44 42 -66 9 -21 18 -37 20 -34 8 8 -24
159 -44 204 -25 57 -71 107 -113 125 -16 6 -27 14 -25 16 8 7 108 -37 163 -72
l56 -36 -33 41 c-42 52 -122 114 -185 142 -63 28 -195 34 -271 13z m352 -85
c3 -5 2 -10 -4 -10 -5 0 -13 5 -16 10 -3 6 -2 10 4 10 5 0 13 -4 16 -10z
m-475 -188 c37 -19 70 -46 102 -87 27 -32 48 -63 48 -68 0 -5 -18 14 -40 41
-49 62 -89 93 -162 126 -32 14 -58 27 -58 30 0 7 48 -11 110 -42z m472 -27
c-2 -14 -6 -25 -8 -25 -2 0 -4 11 -4 25 0 14 4 25 9 25 4 0 6 -11 3 -25z m68
-5 c0 -5 -4 -10 -10 -10 -5 0 -10 5 -10 10 0 6 5 10 10 10 6 0 10 -4 10 -10z
m-94 -304 c4 -25 -11 -19 -24 10 -11 22 -10 24 5 16 9 -6 18 -17 19 -26z"/>
<path d="M1610 1473 c0 -7 4 -13 9 -13 5 0 13 6 19 13 8 10 6 13 -9 13 -10 0
-19 -6 -19 -13z"/>
<path d="M2392 1438 c26 -26 50 -59 53 -75 11 -46 16 -51 11 -10 -5 42 -37 86
-81 113 -23 14 -19 7 17 -28z"/>
<path d="M665 1459 c-4 -6 -5 -12 -2 -15 2 -3 7 2 10 11 7 17 1 20 -8 4z"/>
<path d="M1463 1428 c-48 -53 -89 -180 -72 -224 11 -28 11 -46 -1 -39 -6 4 -8
10 -5 15 7 11 -51 59 -90 75 -41 17 -181 39 -197 31 -7 -3 -31 -17 -53 -31
-22 -13 -51 -30 -65 -37 -14 -7 -29 -18 -33 -25 -4 -7 -25 -13 -46 -13 -22 0
-48 -8 -61 -18 l-22 -18 22 -42 c13 -24 25 -62 27 -86 3 -24 12 -47 22 -53 14
-9 16 -2 17 56 2 61 1 63 -11 35 -13 -27 -13 -27 -14 -5 -1 26 39 121 51 121
11 0 9 -12 -7 -40 -8 -14 -14 -29 -15 -35 0 -5 12 10 26 35 52 92 110 130 197
130 119 0 243 -71 260 -149 4 -20 19 -66 32 -102 l25 -66 -18 -60 c-11 -34
-29 -75 -41 -91 l-21 -30 25 -4 c21 -4 27 2 46 46 35 82 50 146 37 169 -29 55
-58 165 -58 222 0 74 23 156 53 190 l22 25 32 -20 c17 -12 40 -41 52 -65 11
-24 25 -46 30 -50 6 -3 4 7 -4 22 -8 15 -12 35 -10 44 7 20 -37 74 -76 94 -35
19 -32 19 -56 -7z m-559 -266 c2 -4 -11 -12 -30 -18 -38 -12 -46 -3 -11 14 28
13 35 14 41 4z m-14 -31 c0 -12 -20 -25 -27 -18 -7 7 6 27 18 27 5 0 9 -4 9
-9z"/>
<path d="M1998 1443 c7 -3 16 -2 19 1 4 3 -2 6 -13 5 -11 0 -14 -3 -6 -6z"/>
<path d="M586 1369 c-8 -42 0 -50 9 -9 4 17 5 34 2 36 -2 3 -7 -10 -11 -27z"/>
<path d="M1692 1368 c-29 -17 -51 -32 -48 -35 4 -4 116 56 116 63 0 9 -17 2
-68 -28z"/>
<path d="M723 1366 c-60 -19 -104 -49 -154 -104 l-44 -47 75 -6 c73 -5 143
-22 167 -41 7 -6 16 -2 25 10 28 39 65 54 124 50 40 -2 59 1 61 10 4 9 -13 12
-61 12 -61 0 -116 -14 -116 -30 0 -4 -11 -12 -25 -18 -29 -13 -33 -2 -7 20 43
39 83 50 151 44 36 -3 71 -6 76 -7 6 0 28 6 49 14 l39 14 -24 16 c-13 9 -51
28 -84 44 -71 32 -184 41 -252 19z m237 -33 c85 -43 75 -58 -41 -58 -94 0 -98
-1 -137 -32 -43 -34 -107 -48 -82 -18 13 16 0 21 -15 6 -6 -5 -25 -7 -43 -3
l-34 7 54 37 c29 21 49 38 43 38 -5 0 -32 -17 -60 -37 -57 -43 -80 -51 -63
-23 6 9 28 28 50 41 21 13 38 27 38 30 0 4 10 10 23 14 126 40 183 39 267 -2z"/>
<path d="M785 1340 c-27 -8 -26 -8 15 -8 25 1 59 0 75 -2 24 -2 19 -5 -20 -10
l-50 -7 65 -1 c36 -1 81 -6 99 -12 49 -14 25 5 -29 23 -62 20 -119 27 -155 17z"/>
<path d="M745 1282 c-34 -30 -25 -27 19 6 16 12 25 22 20 22 -5 0 -23 -13 -39
-28z"/>
<path d="M1790 1361 c53 -28 139 -119 171 -181 15 -30 28 -51 29 -47 1 18 -53
111 -86 147 -37 41 -120 100 -138 100 -6 -1 5 -9 24 -19z"/>
<path d="M2480 1278 c23 -25 26 -48 8 -66 -8 -8 -8 -12 -1 -12 6 0 14 7 17 16
9 24 7 54 -4 54 -5 0 -10 7 -10 15 0 8 -7 15 -15 15 -13 0 -12 -4 5 -22z"/>
<path d="M1472 1278 c-15 -15 -14 -77 2 -143 12 -49 12 -48 12 52 -1 57 -1
103 -1 103 -1 0 -6 -5 -13 -12z"/>
<path d="M499 1215 c-3 -2 -24 -7 -48 -10 -23 -3 -52 -10 -64 -17 -12 -6 -23
-10 -25 -9 -11 9 -136 -70 -175 -111 -43 -46 -51 -60 -48 -80 0 -5 -3 -8 -8
-8 -5 0 -11 -11 -13 -25 -8 -39 1 -30 26 28 32 71 166 190 166 146 0 -5 5 -7
11 -3 8 4 7 9 -2 16 -10 7 -8 8 8 5 14 -3 21 0 20 7 -1 6 10 10 28 9 19 -2 25
1 17 6 -17 10 40 23 63 15 8 -4 15 -1 15 5 0 6 9 11 19 11 11 0 23 5 26 10 6
10 -7 14 -16 5z"/>
<path d="M2394 1184 c-18 -14 -18 -15 4 -4 12 6 22 13 22 15 0 8 -5 6 -26 -11z"/>
<path d="M1068 1180 c-106 -18 -143 -59 -142 -155 1 -81 45 -178 84 -183 l25
-4 -21 24 c-24 26 -48 68 -39 68 10 0 112 -68 119 -79 16 -26 22 -7 12 39 -8
41 -7 56 7 86 17 34 20 36 62 32 43 -3 45 -2 45 24 0 27 30 68 50 68 5 0 33
-9 62 -20 l52 -20 -49 50 c-27 27 -63 54 -80 59 -47 15 -135 20 -187 11z m190
-44 c18 -9 35 -17 39 -17 5 0 15 -5 23 -10 11 -7 9 -8 -7 -4 -44 12 -86 8 -98
-9 -12 -15 -19 -14 -95 16 -64 25 -78 34 -64 40 30 13 168 2 202 -16z m-152
-33 c68 -28 94 -43 94 -55 0 -14 -8 -18 -39 -18 -21 0 -44 -6 -50 -14 -9 -11
-23 -7 -81 23 -38 20 -70 41 -70 48 0 11 38 53 48 53 3 0 47 -17 98 -37z m-81
-77 l59 -34 -3 -49 c-1 -26 -4 -49 -6 -51 -1 -1 -27 12 -58 30 -42 25 -57 40
-61 62 -8 40 -7 76 2 76 4 0 34 -16 67 -34z"/>
<path d="M2515 1171 c36 -15 108 -24 101 -13 -3 6 -14 11 -24 11 -9 0 -35 2
-57 5 -26 3 -33 2 -20 -3z"/>
<path d="M2438 1153 c12 -2 30 -2 40 0 9 3 -1 5 -23 4 -22 0 -30 -2 -17 -4z"/>
<path d="M2636 1151 c-6 -9 25 -21 53 -21 15 0 12 7 -4 10 -5 1 -18 6 -27 11
-10 5 -19 5 -22 0z"/>
<path d="M2568 1133 c7 -3 16 -2 19 1 4 3 -2 6 -13 5 -11 0 -14 -3 -6 -6z"/>
<path d="M2722 1130 c2 -7 28 -20 58 -30 93 -28 140 -59 174 -112 10 -16 23
-28 28 -28 11 0 -14 42 -42 72 -16 18 -131 78 -160 83 -8 2 -16 4 -17 5 -2 2
-6 3 -10 4 -5 1 -14 5 -22 10 -9 6 -12 5 -9 -4z"/>
<path d="M2201 1114 c0 -11 3 -14 6 -6 3 7 2 16 -1 19 -3 4 -6 -2 -5 -13z"/>
<path d="M2638 1113 c7 -3 16 -2 19 1 4 3 -2 6 -13 5 -11 0 -14 -3 -6 -6z"/>
<path d="M2765 1080 c27 -12 43 -12 25 0 -8 5 -22 9 -30 9 -10 0 -8 -3 5 -9z"/>
<path d="M655 975 c-23 -10 -25 -13 -10 -14 11 0 31 6 45 14 32 18 5 19 -35 0z"/>
<path d="M788 963 c7 -3 16 -2 19 1 4 3 -2 6 -13 5 -11 0 -14 -3 -6 -6z"/>
<path d="M107 899 c-3 -12 -2 -30 3 -39 5 -10 7 -20 4 -22 -7 -8 27 -88 37
-88 5 0 9 -6 9 -12 0 -18 91 -98 110 -97 10 0 7 6 -10 17 -90 62 -130 121
-137 199 -6 66 -8 72 -16 42z"/>
<path d="M1645 860 c-4 -6 -21 -21 -39 -32 -29 -18 -29 -19 -6 -15 14 2 33 8
43 12 13 5 17 2 17 -14 0 -12 6 -21 14 -21 8 0 35 -23 60 -51 36 -40 54 -52
83 -56 73 -9 144 67 142 152 l-1 40 -12 -45 c-25 -89 -55 -120 -117 -120 -50
0 -116 50 -150 114 -17 31 -29 44 -34 36z"/>
<path d="M1048 843 c6 -2 18 -2 25 0 6 3 1 5 -13 5 -14 0 -19 -2 -12 -5z"/>
<path d="M1158 820 c17 -11 32 -24 32 -30 0 -6 26 -9 63 -9 l62 2 -58 6 c-32
4 -61 11 -65 17 -8 12 -46 34 -59 34 -4 0 7 -9 25 -20z"/>
<path d="M2348 754 c31 -35 74 -92 95 -126 37 -60 38 -66 33 -123 -8 -83 -30
-110 -88 -109 -54 2 -87 18 -160 78 -39 31 -61 59 -75 94 l-21 50 39 38 c55
54 51 79 -16 104 l-30 10 29 -26 c25 -22 27 -29 18 -49 -6 -13 -24 -31 -41
-41 -37 -22 -37 -27 -10 -98 36 -98 165 -189 271 -190 50 -1 61 3 84 26 57 56
38 193 -41 303 -51 71 -92 110 -122 118 -17 4 -9 -10 35 -59z"/>
<path d="M1325 780 c3 -5 14 -10 23 -10 15 0 15 2 2 10 -20 13 -33 13 -25 0z"/>
<path d="M1554 768 c-80 -45 -79 -45 -66 -61 11 -13 20 -11 69 19 77 46 97 44
154 -15 56 -58 72 -103 90 -250 20 -168 -8 -327 -72 -393 -69 -73 -118 -46
-189 104 -27 58 -39 75 -50 68 -11 -7 -9 -20 13 -72 62 -146 148 -196 235
-140 25 16 66 83 75 122 28 119 25 369 -4 458 -7 21 -39 63 -75 99 -55 55 -68
63 -101 63 -28 0 -34 3 -23 10 32 21 -15 10 -56 -12z m6 -22 c0 -2 -7 -7 -16
-10 -8 -3 -12 -2 -9 4 6 10 25 14 25 6z"/>
<path d="M2975 780 c-3 -5 -1 -10 4 -10 6 0 11 5 11 10 0 6 -2 10 -4 10 -3 0
-8 -4 -11 -10z"/>
<path d="M2953 729 c-43 -82 -122 -134 -330 -219 -46 -19 -83 -38 -83 -43 0
-5 7 -4 15 3 8 7 15 10 15 6 0 -4 11 1 25 10 14 9 25 13 25 10 0 -4 11 1 24
10 14 8 28 15 31 14 7 -1 68 25 143 63 63 31 147 111 136 128 -3 5 -1 9 4 9
11 0 25 30 18 38 -3 2 -13 -11 -23 -29z"/>
<path d="M1093 725 c-29 -23 -63 -75 -63 -96 0 -10 85 80 85 90 0 3 4 12 8 19
12 17 6 15 -30 -13z m2 -25 c-10 -11 -20 -18 -23 -16 -5 6 21 35 32 36 5 0 1
-9 -9 -20z"/>
<path d="M1188 743 c7 -3 16 -2 19 1 4 3 -2 6 -13 5 -11 0 -14 -3 -6 -6z"/>
<path d="M1440 740 c20 -13 33 -13 25 0 -3 6 -14 10 -23 10 -15 0 -15 -2 -2
-10z"/>
<path d="M1135 730 c-3 -6 1 -7 9 -4 18 7 21 14 7 14 -6 0 -13 -4 -16 -10z"/>
<path d="M2110 710 c0 -5 10 -10 23 -10 18 0 19 2 7 10 -19 13 -30 13 -30 0z"/>
<path d="M1480 665 c13 -14 26 -25 28 -25 3 0 -5 11 -18 25 -13 14 -26 25 -28
25 -3 0 5 -11 18 -25z"/>
<path d="M1520 686 c0 -4 9 -19 20 -33 24 -30 60 -124 61 -161 2 -25 2 -25 6
-4 6 31 -34 144 -64 178 -12 15 -23 24 -23 20z"/>
<path d="M1965 680 c3 -5 16 -10 28 -9 21 0 21 1 2 9 -28 12 -37 12 -30 0z"/>
<path d="M2049 654 c19 -8 36 -12 39 -9 5 5 -43 25 -61 25 -7 -1 3 -7 22 -16z"/>
<path d="M2827 645 c-15 -14 -24 -25 -20 -25 12 1 70 50 58 50 -5 -1 -23 -12
-38 -25z"/>
<path d="M290 612 c0 -5 -25 -36 -56 -70 -31 -34 -53 -62 -49 -62 13 0 111 68
133 93 24 25 24 25 4 36 -25 13 -32 14 -32 3z"/>
<path d="M340 540 c-30 -64 -142 -172 -212 -205 -29 -14 -70 -25 -91 -25 -23
0 -36 -4 -32 -10 11 -18 134 -10 230 16 12 3 1 -13 -30 -42 l-50 -46 35 6 c56
10 172 73 218 117 23 23 46 39 49 35 11 -10 -31 -85 -72 -129 -19 -21 -35 -40
-35 -43 0 -11 67 42 128 100 48 46 61 64 56 80 -4 15 -3 17 4 7 8 -11 17 -5
41 29 29 40 47 78 39 84 -1 2 -26 6 -55 8 l-52 5 -33 -54 c-24 -40 -56 -72
-113 -113 -44 -32 -81 -57 -84 -55 -2 2 19 30 47 61 55 61 117 168 107 184 -3
6 -13 10 -21 10 -10 0 -13 -7 -8 -25 4 -15 2 -25 -5 -25 -6 0 -11 -7 -11 -15
0 -8 -4 -15 -10 -15 -5 0 -10 -9 -10 -20 0 -11 -4 -20 -10 -20 -5 0 -10 -7
-10 -15 0 -8 -4 -15 -9 -15 -5 0 -13 -9 -16 -20 -3 -11 -12 -20 -18 -20 -7 0
-18 -14 -26 -30 -10 -25 -16 -29 -27 -19 -9 7 -31 9 -62 5 -47 -6 -47 -6 -18
9 18 9 43 13 65 10 23 -3 28 -2 13 3 -13 4 -23 11 -24 15 0 13 54 67 66 67 6
-1 -5 -14 -24 -30 -19 -17 -30 -30 -24 -30 29 0 110 99 142 172 10 24 9 29 -7
37 -15 9 -21 3 -41 -39z m25 -16 c-19 -45 -55 -97 -63 -89 -4 3 -1 9 5 13 6 4
23 31 38 60 30 59 43 70 20 16z m175 -22 c0 -4 -15 -31 -33 -60 -25 -40 -35
-49 -47 -42 -13 8 -12 10 4 10 12 0 16 5 13 14 -3 8 1 20 10 27 8 7 19 23 24
36 8 22 29 32 29 15z m30 -14 c0 -7 -7 -22 -15 -32 -18 -24 -20 -40 -3 -30 7
4 8 3 4 -5 -4 -6 -11 -9 -16 -6 -11 7 -41 -35 -34 -47 3 -4 0 -8 -5 -8 -6 0
-11 11 -11 25 0 14 5 25 10 25 6 0 10 4 10 9 0 6 9 26 21 45 21 36 39 47 39
24z m30 5 c0 -5 -10 -19 -21 -33 l-20 -25 16 33 c15 30 25 41 25 25z m-340
-208 c-7 -9 -15 -13 -19 -10 -3 3 1 10 9 15 21 14 24 12 10 -5z"/>
<path d="M2638 553 c-10 -2 -18 -8 -18 -13 0 -4 9 -6 20 -3 11 3 20 9 20 14 0
5 -1 8 -2 8 -2 -1 -11 -3 -20 -6z"/>
<path d="M655 540 c-3 -5 -1 -10 4 -10 6 0 11 5 11 10 0 6 -2 10 -4 10 -3 0
-8 -4 -11 -10z"/>
<path d="M1600 427 c0 -45 -21 -97 -57 -146 l-26 -36 27 25 c44 40 84 152 65
182 -6 8 -9 -1 -9 -25z"/>
<path d="M612 425 c0 -16 2 -22 5 -12 2 9 2 23 0 30 -3 6 -5 -1 -5 -18z"/>
<path d="M2270 277 c-81 -78 -148 -117 -209 -122 -21 -1 -44 -6 -50 -9 -6 -4
-11 -1 -11 6 0 9 -3 9 -10 -2 -7 -11 -28 -15 -85 -14 -41 0 -73 -2 -70 -5 13
-13 138 -8 208 9 42 9 77 16 77 13 0 -5 59 26 77 41 32 25 153 144 153 150 0
10 -2 8 -80 -67z"/>
<path d="M610 317 c0 -14 5 -29 10 -32 7 -4 8 3 4 22 -9 38 -14 42 -14 10z"/>
<path d="M2229 273 l-34 -38 38 34 c20 19 37 36 37 38 0 8 -8 0 -41 -34z"/>
<path d="M620 265 c0 -11 29 -75 39 -87 61 -75 158 -149 194 -148 7 1 -10 12
-38 27 -62 31 -138 109 -165 168 -18 40 -30 56 -30 40z"/>
<path d="M660 246 c0 -8 4 -17 9 -20 5 -4 7 3 4 14 -6 23 -13 26 -13 6z"/>
<path d="M1339 213 c-13 -16 -12 -17 4 -4 16 13 21 21 13 21 -2 0 -10 -8 -17
-17z"/>
<path d="M1410 220 l-25 -8 27 -1 c15 -1 30 4 33 9 7 11 0 11 -35 0z"/>
<path d="M701 173 c7 -12 15 -20 18 -17 3 2 -3 12 -13 22 -17 16 -18 16 -5 -5z"/>
<path d="M1309 173 c-13 -16 -12 -17 4 -4 16 13 21 21 13 21 -2 0 -10 -8 -17
-17z"/>
<path d="M1318 139 c-44 -46 -115 -88 -162 -96 -11 -2 -22 -6 -25 -9 -5 -5 50
1 57 6 1 2 5 3 10 4 45 11 188 116 157 116 -5 0 0 7 11 15 10 8 15 14 9 14 -5
0 -31 -22 -57 -50z"/>
<path d="M1883 153 c9 -2 23 -2 30 0 6 3 -1 5 -18 5 -16 0 -22 -2 -12 -5z"/>
<path d="M775 110 c10 -11 20 -20 23 -20 3 0 -3 9 -13 20 -10 11 -20 20 -23
20 -3 0 3 -9 13 -20z"/>
<path d="M1048 43 c7 -3 16 -2 19 1 4 3 -2 6 -13 5 -11 0 -14 -3 -6 -6z"/>
<path d="M870 34 c0 -10 38 -21 49 -15 9 6 3 10 -18 13 -17 2 -31 3 -31 2z"/>
<path d="M1060 21 c0 -4 12 -7 26 -5 38 4 42 14 6 14 -18 0 -32 -4 -32 -9z"/>
<path d="M948 13 c7 -3 16 -2 19 1 4 3 -2 6 -13 5 -11 0 -14 -3 -6 -6z"/>
</g>
</svg>
